<svg width="269" height="37" viewBox="0 0 269 37" fill="none" xmlns="http://www.w3.org/2000/svg">
<circle cx="27" cy="16" r="14" fill="white"/>
<path d="M3.70385 32.9105L16.0892 22.9828C16.6525 22.5313 17.4537 22.5312 18.0171 22.9827C18.7869 23.5997 18.7869 24.771 18.0172 25.3881L5.63184 35.3158C5.06853 35.7673 4.26728 35.7673 3.70393 35.3158C2.93411 34.6989 2.93407 33.5275 3.70385 32.9105Z" fill="white" stroke="white"/>
<path d="M32.594 19.798C32.594 20.502 32.418 21.1767 32.066 21.822C31.714 22.4527 31.1933 22.9807 30.504 23.406C29.8293 23.8313 29.0153 24.0733 28.062 24.132V25.914H26.874V24.132C25.5393 24.0147 24.454 23.5893 23.618 22.856C22.782 22.108 22.3567 21.162 22.342 20.018H24.476C24.5347 20.634 24.762 21.1693 25.158 21.624C25.5687 22.0787 26.1407 22.3647 26.874 22.482V16.982C25.8913 16.7327 25.0993 16.476 24.498 16.212C23.8967 15.948 23.3833 15.5373 22.958 14.98C22.5327 14.4227 22.32 13.6747 22.32 12.736C22.32 11.548 22.7307 10.5653 23.552 9.788C24.388 9.01067 25.4953 8.578 26.874 8.49V6.664H28.062V8.49C29.3087 8.59267 30.3133 8.996 31.076 9.7C31.8387 10.3893 32.2787 11.2913 32.396 12.406H30.262C30.1887 11.8927 29.9613 11.4307 29.58 11.02C29.1987 10.5947 28.6927 10.316 28.062 10.184V15.552C29.03 15.8013 29.8147 16.058 30.416 16.322C31.032 16.5713 31.5453 16.9747 31.956 17.532C32.3813 18.0893 32.594 18.8447 32.594 19.798ZM24.366 12.626C24.366 13.3447 24.5787 13.8947 25.004 14.276C25.4293 14.6573 26.0527 14.9727 26.874 15.222V10.14C26.1113 10.2133 25.5027 10.4627 25.048 10.888C24.5933 11.2987 24.366 11.878 24.366 12.626ZM28.062 22.504C28.854 22.416 29.47 22.13 29.91 21.646C30.3647 21.162 30.592 20.5827 30.592 19.908C30.592 19.1893 30.372 18.6393 29.932 18.258C29.492 17.862 28.8687 17.5467 28.062 17.312V22.504Z" fill="#1A535C"/>
<path d="M47.1815 10.294V15.42H52.7695V17.07H47.1815V22.35H53.4295V24H45.1795V8.644H53.4295V10.294H47.1815ZM74.3228 20.59H67.6348L66.4028 24H64.2908L69.8348 8.754H72.1448L77.6668 24H75.5548L74.3228 20.59ZM73.7508 18.962L70.9788 11.218L68.2068 18.962H73.7508ZM96.9571 24L93.3051 17.73H90.8851V24H88.8831V8.666H93.8331C94.9917 8.666 95.9671 8.864 96.7591 9.26C97.5657 9.656 98.1671 10.1913 98.5631 10.866C98.9591 11.5407 99.1571 12.3107 99.1571 13.176C99.1571 14.232 98.8491 15.1633 98.2331 15.97C97.6317 16.7767 96.7224 17.312 95.5051 17.576L99.3551 24H96.9571ZM90.8851 16.124H93.8331C94.9184 16.124 95.7324 15.86 96.2751 15.332C96.8177 14.7893 97.0891 14.0707 97.0891 13.176C97.0891 12.2667 96.8177 11.5627 96.2751 11.064C95.7471 10.5653 94.9331 10.316 93.8331 10.316H90.8851V16.124ZM110.32 16.322C110.32 14.826 110.657 13.484 111.332 12.296C112.006 11.0933 112.923 10.1547 114.082 9.48C115.255 8.80533 116.553 8.468 117.976 8.468C119.648 8.468 121.107 8.87133 122.354 9.678C123.6 10.4847 124.51 11.6287 125.082 13.11H122.684C122.258 12.186 121.642 11.4747 120.836 10.976C120.044 10.4773 119.09 10.228 117.976 10.228C116.905 10.228 115.944 10.4773 115.094 10.976C114.243 11.4747 113.576 12.186 113.092 13.11C112.608 14.0193 112.366 15.09 112.366 16.322C112.366 17.5393 112.608 18.61 113.092 19.534C113.576 20.4433 114.243 21.1473 115.094 21.646C115.944 22.1447 116.905 22.394 117.976 22.394C119.09 22.394 120.044 22.152 120.836 21.668C121.642 21.1693 122.258 20.458 122.684 19.534H125.082C124.51 21.0007 123.6 22.1373 122.354 22.944C121.107 23.736 119.648 24.132 117.976 24.132C116.553 24.132 115.255 23.802 114.082 23.142C112.923 22.4673 112.006 21.536 111.332 20.348C110.657 19.16 110.32 17.818 110.32 16.322ZM148.676 8.666V24H146.674V17.048H138.864V24H136.862V8.666H138.864V15.398H146.674V8.666H148.676ZM185.812 13.154C185.812 14.43 185.372 15.4933 184.492 16.344C183.626 17.18 182.299 17.598 180.51 17.598H177.562V24H175.56V8.666H180.51C182.24 8.666 183.553 9.084 184.448 9.92C185.357 10.756 185.812 11.834 185.812 13.154ZM180.51 15.948C181.624 15.948 182.446 15.706 182.974 15.222C183.502 14.738 183.766 14.0487 183.766 13.154C183.766 11.262 182.68 10.316 180.51 10.316H177.562V15.948H180.51ZM205.174 24L201.522 17.73H199.102V24H197.1V8.666H202.05C203.209 8.666 204.184 8.864 204.976 9.26C205.783 9.656 206.384 10.1913 206.78 10.866C207.176 11.5407 207.374 12.3107 207.374 13.176C207.374 14.232 207.066 15.1633 206.45 15.97C205.849 16.7767 204.939 17.312 203.722 17.576L207.572 24H205.174ZM199.102 16.124H202.05C203.135 16.124 203.949 15.86 204.492 15.332C205.035 14.7893 205.306 14.0707 205.306 13.176C205.306 12.2667 205.035 11.5627 204.492 11.064C203.964 10.5653 203.15 10.316 202.05 10.316H199.102V16.124ZM221.287 8.666V24H219.285V8.666H221.287ZM232.751 16.322C232.751 14.826 233.088 13.484 233.763 12.296C234.437 11.0933 235.354 10.1547 236.513 9.48C237.686 8.80533 238.984 8.468 240.407 8.468C242.079 8.468 243.538 8.87133 244.785 9.678C246.031 10.4847 246.941 11.6287 247.513 13.11H245.115C244.689 12.186 244.073 11.4747 243.267 10.976C242.475 10.4773 241.521 10.228 240.407 10.228C239.336 10.228 238.375 10.4773 237.525 10.976C236.674 11.4747 236.007 12.186 235.523 13.11C235.039 14.0193 234.797 15.09 234.797 16.322C234.797 17.5393 235.039 18.61 235.523 19.534C236.007 20.4433 236.674 21.1473 237.525 21.646C238.375 22.1447 239.336 22.394 240.407 22.394C241.521 22.394 242.475 22.152 243.267 21.668C244.073 21.1693 244.689 20.458 245.115 19.534H247.513C246.941 21.0007 246.031 22.1373 244.785 22.944C243.538 23.736 242.079 24.132 240.407 24.132C238.984 24.132 237.686 23.802 236.513 23.142C235.354 22.4673 234.437 21.536 233.763 20.348C233.088 19.16 232.751 17.818 232.751 16.322ZM261.295 10.294V15.42H266.883V17.07H261.295V22.35H267.543V24H259.293V8.644H267.543V10.294H261.295Z" fill="white"/>
</svg>
